<svg width="27" height="27" viewBox="0 0 27 27" fill="none" xmlns="http://www.w3.org/2000/svg">
<path d="M8.89324 15.3635C9.17379 14.8024 9.33213 14.1691 9.33213 13.4997C9.33213 12.8303 9.17379 12.197 8.89324 11.6359M8.89324 15.3635C8.47338 16.2028 7.7824 16.8759 6.93225 17.2736C6.0821 17.6712 5.12257 17.7703 4.20911 17.5546C3.29565 17.3389 2.48177 16.8211 1.89933 16.0852C1.31689 15.3492 1 14.4382 1 13.4997C1 12.5612 1.31689 11.6502 1.89933 10.9142C2.48177 10.1783 3.29565 9.6605 4.20911 9.44481C5.12257 9.22912 6.0821 9.32814 6.93225 9.72582C7.7824 10.1235 8.47338 10.7965 8.89324 11.6359M8.89324 15.3635L18.1044 19.9687M8.89324 11.6359L18.1044 7.03066M18.1044 19.9687C17.6101 20.9573 17.5287 22.1018 17.8783 23.1504C18.2278 24.1989 18.9796 25.0657 19.9683 25.56C20.957 26.0543 22.1015 26.1357 23.1502 25.7861C24.1988 25.4366 25.0657 24.6849 25.56 23.6963C26.0543 22.7076 26.1357 21.5632 25.7861 20.5146C25.4366 19.466 24.6848 18.5993 23.6961 18.1049C23.2065 17.8602 22.6736 17.7143 22.1276 17.6755C21.5817 17.6367 21.0335 17.7058 20.5142 17.8788C19.4656 18.2284 18.5987 18.9801 18.1044 19.9687ZM18.1044 7.03066C18.3492 7.52008 18.6879 7.95649 19.1014 8.31499C19.5148 8.67349 19.9948 8.94705 20.514 9.12005C21.0332 9.29306 21.5814 9.36211 22.1272 9.32328C22.6731 9.28445 23.2059 9.13849 23.6954 8.89374C24.1848 8.64898 24.6213 8.31023 24.9798 7.89682C25.3383 7.4834 25.6119 7.00342 25.7849 6.48429C25.9579 5.96515 26.027 5.41702 25.9882 4.8712C25.9493 4.32537 25.8034 3.79254 25.5586 3.30313C25.0643 2.31471 24.1975 1.56313 23.149 1.21374C22.1005 0.864343 20.9561 0.945751 19.9676 1.44005C18.9791 1.93435 18.2275 2.80106 17.8781 3.8495C17.5286 4.89795 17.6101 6.04224 18.1044 7.03066Z" stroke="#2D4841" stroke-width="2" stroke-linecap="round" stroke-linejoin="round"/>
</svg>
