<svg width="32" height="30" viewBox="0 0 32 30" fill="none" xmlns="http://www.w3.org/2000/svg">
<path d="M14.3611 27.1098L14.3597 27.1084C10.2203 23.2731 6.86404 20.1571 4.53089 17.2405C2.20936 14.3383 1 11.7518 1 8.99183C1 4.4731 4.44333 1 8.8 1C11.2736 1 13.6704 2.18189 15.2343 4.04372L16 4.95534L16.7657 4.04372C18.3296 2.18189 20.7264 1 23.2 1C27.5567 1 31 4.4731 31 8.99183C31 11.7518 29.7906 14.3383 27.4691 17.2405C25.136 20.1571 21.7797 23.2731 17.6403 27.1084L17.6389 27.1098L16 28.6343L14.3611 27.1098Z" stroke="#2D4841" stroke-width="2"/>
</svg>
